HIERARCHY
ROOT Hips
{
	OFFSET 0.000000 103.266502 0.000000
	CHANNELS 6 Xposition Yposition Zposition Xrotation Yrotation Zrotation 
	JOINT Spine
	{
		OFFSET -0.002400 12.777504 0.315300
		CHANNELS 3 Xrotation Yrotation Zrotation
		JOINT Spine1
		{
			OFFSET -0.002067 5.816869 0.032633
			CHANNELS 3 Xrotation Yrotation Zrotation
			JOINT Spine1_split
			{
				OFFSET -0.002067 5.816869 0.032633
				CHANNELS 3 Xrotation Yrotation Zrotation
				JOINT Spine2
				{
					OFFSET -0.002067 5.816869 0.032633
					CHANNELS 3 Xrotation Yrotation Zrotation
					JOINT Neck
					{
						OFFSET -0.003700 21.199493 -0.826900
						CHANNELS 3 Xrotation Yrotation Zrotation
						JOINT Head
						{
							OFFSET 0.000000 20.442200 4.834800
							CHANNELS 3 Xrotation Yrotation Zrotation
							JOINT HeadTop_End
							{
								OFFSET 0.000000 34.668396 4.968400
								CHANNELS 3 Xrotation Yrotation Zrotation
								End Site
								{
									OFFSET 0.000000 0.000000 0.000000
								}
							}
						}
					}
					JOINT LeftShoulder
					{
						OFFSET 3.288150 8.794197 -1.372250
						CHANNELS 3 Xrotation Yrotation Zrotation
						JOINT LeftShoulder_split
						{
							OFFSET 3.288150 8.794197 -1.372250
							CHANNELS 3 Xrotation Yrotation Zrotation
							JOINT LeftArm
							{
								OFFSET 11.953299 -2.279007 -0.146200
								CHANNELS 3 Xrotation Yrotation Zrotation
								JOINT LeftForeArm
								{
									OFFSET 18.448900 0.000000 0.000000
									CHANNELS 3 Xrotation Yrotation Zrotation
									JOINT LeftHand
									{
										OFFSET 29.527798 0.000000 0.000000
										CHANNELS 3 Xrotation Yrotation Zrotation
										JOINT LeftHandThumb1
										{
											OFFSET 10.739754 -2.369614 9.225399
											CHANNELS 3 Xrotation Yrotation Zrotation
											JOINT LeftHandThumb2
											{
												OFFSET 4.926170 -2.844131 2.844125
												CHANNELS 3 Xrotation Yrotation Zrotation
												JOINT LeftHandThumb3
												{
													OFFSET 4.614891 -2.664413 2.664409
													CHANNELS 3 Xrotation Yrotation Zrotation
													JOINT LeftHandThumb4
													{
														OFFSET 4.432465 -2.559082 2.559083
														CHANNELS 3 Xrotation Yrotation Zrotation
														End Site
														{
															OFFSET 0.000000 0.000000 0.000000
														}
													}
												}
											}
										}
										JOINT LeftHandIndex1
										{
											OFFSET 26.467674 0.187653 6.405298
											CHANNELS 3 Xrotation Yrotation Zrotation
											JOINT LeftHandIndex2
											{
												OFFSET 8.792900 0.000000 0.000000
												CHANNELS 3 Xrotation Yrotation Zrotation
												JOINT LeftHandIndex3
												{
													OFFSET 10.075203 0.000000 0.000000
													CHANNELS 3 Xrotation Yrotation Zrotation
													End Site
													{
														OFFSET 0.000000 0.000000 0.000000
													}
												}
											}
										}
										JOINT LeftHandMiddle1
										{
											OFFSET 25.764404 0.000000 0.000000
											CHANNELS 3 Xrotation Yrotation Zrotation
											JOINT LeftHandMiddle2
											{
												OFFSET 9.393974 0.000000 0.000000
												CHANNELS 3 Xrotation Yrotation Zrotation
												JOINT LeftHandMiddle3
												{
													OFFSET 10.771950 0.000000 0.000000
													CHANNELS 3 Xrotation Yrotation Zrotation
													End Site
													{
														OFFSET 0.000000 0.000000 0.000000
													}
												}
											}
										}
										JOINT LeftHandRing1
										{
											OFFSET 24.660927 0.144547 -6.225808
											CHANNELS 3 Xrotation Yrotation Zrotation
											JOINT LeftHandRing2
											{
												OFFSET 9.393799 0.000000 0.000000
												CHANNELS 3 Xrotation Yrotation Zrotation
												JOINT LeftHandRing3
												{
													OFFSET 9.928497 0.000000 0.000000
													CHANNELS 3 Xrotation Yrotation Zrotation
													End Site
													{
														OFFSET 0.000000 0.000000 0.000000
													}
												}
											}
										}
										JOINT LeftHandPinky1
										{
											OFFSET 23.655350 0.125290 -12.815412
											CHANNELS 3 Xrotation Yrotation Zrotation
											JOINT LeftHandPinky2
											{
												OFFSET 8.425102 0.000000 0.000000
												CHANNELS 3 Xrotation Yrotation Zrotation
												JOINT LeftHandPinky3
												{
													OFFSET 8.147003 0.000000 0.000000
													CHANNELS 3 Xrotation Yrotation Zrotation
													End Site
													{
														OFFSET 0.000000 0.000000 0.000000
													}
												}
											}
										}
									}
								}
							}
						}
					}
					JOINT RightShoulder
					{
						OFFSET -3.249400 8.794197 -1.372250
						CHANNELS 3 Xrotation Yrotation Zrotation
						JOINT RightShoulder_split
						{
							OFFSET -3.249400 8.794197 -1.372250
							CHANNELS 3 Xrotation Yrotation Zrotation
							JOINT RightArm
							{
								OFFSET -11.953299 -2.279007 -0.146200
								CHANNELS 3 Xrotation Yrotation Zrotation
								JOINT RightForeArm
								{
									OFFSET -18.448900 0.000000 0.000000
									CHANNELS 3 Xrotation Yrotation Zrotation
									JOINT RightHand
									{
										OFFSET -29.527802 0.000000 0.000000
										CHANNELS 3 Xrotation Yrotation Zrotation
										JOINT RightHandThumb1
										{
											OFFSET -10.739754 -2.369614 9.225399
											CHANNELS 3 Xrotation Yrotation Zrotation
											JOINT RightHandThumb2
											{
												OFFSET -4.926170 -2.844131 2.844125
												CHANNELS 3 Xrotation Yrotation Zrotation
												JOINT RightHandThumb3
												{
													OFFSET -4.614891 -2.664413 2.664409
													CHANNELS 3 Xrotation Yrotation Zrotation
													JOINT RightHandThumb4
													{
														OFFSET -4.432465 -2.559082 2.559083
														CHANNELS 3 Xrotation Yrotation Zrotation
														End Site
														{
															OFFSET 0.000000 0.000000 0.000000
														}
													}
												}
											}
										}
										JOINT RightHandIndex1
										{
											OFFSET -26.467674 0.187653 6.405298
											CHANNELS 3 Xrotation Yrotation Zrotation
											JOINT RightHandIndex2
											{
												OFFSET -8.792900 0.000000 0.000000
												CHANNELS 3 Xrotation Yrotation Zrotation
												JOINT RightHandIndex3
												{
													OFFSET -10.075203 0.000000 0.000000
													CHANNELS 3 Xrotation Yrotation Zrotation
													End Site
													{
														OFFSET 0.000000 0.000000 0.000000
													}
												}
											}
										}
										JOINT RightHandMiddle1
										{
											OFFSET -25.764404 0.000000 0.000000
											CHANNELS 3 Xrotation Yrotation Zrotation
											JOINT RightHandMiddle2
											{
												OFFSET -9.393974 0.000000 0.000000
												CHANNELS 3 Xrotation Yrotation Zrotation
												JOINT RightHandMiddle3
												{
													OFFSET -10.771950 0.000000 0.000000
													CHANNELS 3 Xrotation Yrotation Zrotation
													End Site
													{
														OFFSET 0.000000 0.000000 0.000000
													}
												}
											}
										}
										JOINT RightHandRing1
										{
											OFFSET -24.660927 0.144547 -6.225808
											CHANNELS 3 Xrotation Yrotation Zrotation
											JOINT RightHandRing2
											{
												OFFSET -9.393799 0.000000 0.000000
												CHANNELS 3 Xrotation Yrotation Zrotation
												JOINT RightHandRing3
												{
													OFFSET -9.928497 0.000000 0.000000
													CHANNELS 3 Xrotation Yrotation Zrotation
													End Site
													{
														OFFSET 0.000000 0.000000 0.000000
													}
												}
											}
										}
										JOINT RightHandPinky1
										{
											OFFSET -23.655350 0.125290 -12.815412
											CHANNELS 3 Xrotation Yrotation Zrotation
											JOINT RightHandPinky2
											{
												OFFSET -8.425102 0.000000 0.000000
												CHANNELS 3 Xrotation Yrotation Zrotation
												JOINT RightHandPinky3
												{
													OFFSET -8.147003 0.000000 0.000000
													CHANNELS 3 Xrotation Yrotation Zrotation
													End Site
													{
														OFFSET 0.000000 0.000000 0.000000
													}
												}
											}
										}
									}
								}
							}
						}
					}
				}
			}
		}
	}
	JOINT LeftUpLeg
	{
		OFFSET 11.394100 -6.187798 -0.413800
		CHANNELS 3 Xrotation Yrotation Zrotation
		JOINT LeftLeg
		{
			OFFSET 0.430247 -32.302673 3.732800
			CHANNELS 3 Xrotation Yrotation Zrotation
			JOINT LeftFoot
			{
				OFFSET -0.430247 -48.264931 -6.423300
				CHANNELS 3 Xrotation Yrotation Zrotation
				JOINT LeftToeBase
				{
					OFFSET 4.230900 -16.068199 23.438400
					CHANNELS 3 Xrotation Yrotation Zrotation
					JOINT LeftToe_End
					{
						OFFSET 4.510700 0.695400 19.974600
						CHANNELS 3 Xrotation Yrotation Zrotation
						End Site
						{
							OFFSET 0.000000 0.000000 0.000000
						}
					}
				}
			}
		}
	}
	JOINT RightUpLeg
	{
		OFFSET -11.333700 -6.187798 -0.413800
		CHANNELS 3 Xrotation Yrotation Zrotation
		JOINT RightLeg
		{
			OFFSET -0.430392 -32.302628 3.733000
			CHANNELS 3 Xrotation Yrotation Zrotation
			JOINT RightFoot
			{
				OFFSET 0.430392 -48.264973 -6.423500
				CHANNELS 3 Xrotation Yrotation Zrotation
				JOINT RightToeBase
				{
					OFFSET -4.230900 -16.068199 23.438400
					CHANNELS 3 Xrotation Yrotation Zrotation
					JOINT RightToe_End
					{
						OFFSET -4.510700 0.695400 19.974600
						CHANNELS 3 Xrotation Yrotation Zrotation
						End Site
						{
							OFFSET 0.000000 0.000000 0.000000
						}
					}
				}
			}
		}
	}
}
MOTION
Frames: 5
Frame Time: 0.016667
-104.948235 84.340546 -6.913923 5.535542 -58.217138 3.300937 15.978152 1.231877 -4.818646 15.662361 2.194514 -5.768870 0.000000 0.000000 0.000000 15.861040 2.321205 -5.742678 -14.884358 23.425669 6.721286 -15.964686 21.324450 2.083148 -0.000000 0.000000 0.000000 -0.592718 -13.563757 6.823837 0.000000 0.000000 0.000000 -37.598409 23.788792 -23.345663 0.137263 -73.842432 0.102717 21.507006 -12.727075 33.551812 -0.176231 -1.991289 10.659553 -0.979210 11.076294 -5.731057 -1.819315 -7.916928 -2.018627 -0.000001 0.000000 0.000000 13.247444 -0.979857 21.207941 -0.180149 0.297636 -20.577333 -0.000000 0.000002 0.000000 8.602426 -0.416364 9.612756 0.200406 0.617479 -19.373459 0.000001 0.000000 -0.000000 6.158754 3.074137 -5.684671 0.025719 0.262728 -19.597358 -0.000000 0.000000 0.000001 -5.613877 7.660070 -3.352579 0.187028 0.237989 -36.060199 0.000000 -0.000001 -0.000001 -2.118367 13.247536 13.753732 0.000000 0.000000 0.000000 -38.399057 -0.958089 39.774186 151.512488 110.498111 -153.014324 -21.986352 0.700026 -2.641028 1.093328 1.408787 -13.987310 3.986639 -25.048807 0.080531 4.270663 -21.254159 -11.788136 -0.000001 0.000001 0.000001 19.464649 11.168270 -4.447428 -0.110038 -0.329368 26.935956 0.000002 -0.000000 -0.000002 4.244767 2.329706 4.090245 0.378194 -0.490166 35.790659 -0.000000 -0.000006 -0.000003 -7.005490 -10.749416 14.617049 0.115642 -0.151339 35.055997 -0.000002 0.000001 0.000000 -19.412769 -20.240272 14.888265 0.269431 -0.116281 45.744830 0.000004 -0.000000 -0.000000 -49.329433 -24.884430 18.454679 41.739313 -3.123624 -9.150098 5.808406 -0.398599 -20.607548 -0.355047 -0.846162 0.659645 -0.000000 -0.000000 -0.000000 -61.803411 2.049517 -10.895520 85.355003 5.288976 -7.251279 -6.259689 -3.612808 14.536709 -10.005739 1.831918 0.144605 0.000002 -0.000000 0.000000 
-106.269630 84.386436 -6.730826 4.066947 -58.567199 2.003151 15.905555 1.098249 -4.755689 15.476334 1.900077 -5.988022 0.000000 0.000000 0.000000 15.663094 2.020915 -5.953949 -15.640621 24.355953 6.043395 -15.299786 22.041528 1.948358 0.000000 0.000000 -0.000001 -1.370434 -14.343348 3.032922 0.000000 0.000000 0.000000 -38.279618 22.614270 -23.089905 0.142022 -75.187822 0.107885 21.180316 -12.561876 30.726350 -0.172644 -1.962140 10.669723 -0.991720 11.049009 -5.744201 -1.829335 -7.945224 -2.034910 -0.000000 0.000002 0.000001 13.246167 -0.979984 21.241408 -0.180216 0.297670 -20.543863 0.000001 -0.000001 0.000000 8.603000 -0.416586 9.646222 0.200007 0.617171 -19.339956 0.000001 -0.000002 -0.000001 6.160620 3.072686 -5.651289 0.025780 0.262528 -19.563876 -0.000001 -0.000000 -0.000002 -5.609813 7.658651 -3.319399 0.186934 0.238055 -36.026700 -0.000002 -0.000001 0.000001 -2.145714 13.116411 13.287852 0.000000 0.000000 0.000000 -38.908500 -2.796944 41.271145 150.551453 108.832692 -151.840856 -18.983459 0.814730 -0.184475 1.100662 1.316001 -14.020259 4.097947 -25.391032 -0.046749 4.301333 -21.611224 -11.948335 0.000001 -0.000000 -0.000001 19.480340 11.186124 -4.051272 -0.109623 -0.329618 27.333165 0.000001 -0.000000 0.000002 4.235011 2.325058 4.487351 0.380042 -0.491330 36.187804 0.000001 -0.000004 -0.000000 -7.026279 -10.770431 15.013171 0.116062 -0.154267 35.453179 0.000001 0.000000 -0.000001 -19.446530 -20.272546 15.280810 0.270982 -0.117530 46.141920 -0.000001 0.000003 0.000001 -47.837402 -24.640227 19.420854 42.580950 -3.851219 -9.418886 4.342594 -0.124592 -20.671337 -0.352100 -0.828230 0.672666 -0.000000 -0.000001 0.000000 -60.321581 2.501146 -11.620985 81.886981 2.587444 -7.456092 -9.568463 -5.228519 12.064193 1.045270 3.884980 4.124768 0.000000 -0.000000 -0.000000 
-107.533295 84.455803 -6.569458 2.642362 -58.807061 0.813486 15.828385 0.959750 -4.686268 15.281058 1.631125 -6.174522 0.000000 0.000000 0.000000 15.452427 1.743123 -6.133695 -16.471742 25.128983 5.368878 -14.460298 22.658893 1.648730 -0.000001 -0.000001 -0.000000 -2.134504 -14.889218 -0.321569 0.000000 0.000000 0.000000 -38.090831 21.313443 -23.421111 0.143826 -75.859667 0.109839 21.642689 -12.430018 28.334580 -0.171284 -1.951956 10.673353 -0.995522 11.040127 -5.747499 -1.832640 -7.954334 -2.039772 0.000001 -0.000000 0.000000 13.244943 -0.980216 21.252181 -0.180219 0.297760 -20.533241 -0.000001 0.000002 0.000001 8.603638 -0.416715 9.656907 0.199600 0.616971 -19.329306 -0.000001 0.000003 0.000000 6.162578 3.070923 -5.640795 0.025951 0.262515 -19.553192 -0.000001 0.000001 0.000000 -5.608276 7.656859 -3.309145 0.186898 0.238181 -36.015990 0.000001 -0.000003 -0.000002 -2.213421 12.977064 12.820908 0.000000 0.000000 0.000000 -38.520296 -3.822275 41.682295 149.720356 107.278079 -150.818404 -17.231145 2.319439 1.639099 1.099631 1.332541 -14.014484 4.156991 -25.569856 -0.112253 4.317104 -21.797731 -12.032351 0.000004 -0.000002 0.000004 19.490583 11.198345 -3.844296 -0.109435 -0.329751 27.540766 -0.000000 -0.000000 -0.000001 4.228759 2.322541 4.694881 0.381014 -0.491850 36.395394 0.000001 -0.000001 -0.000000 -7.040159 -10.784474 15.220076 0.116266 -0.155918 35.660793 0.000000 0.000001 -0.000001 -19.469261 -20.294731 15.485337 0.271739 -0.118146 46.349520 0.000001 -0.000000 0.000001 -46.371732 -24.160500 20.312728 43.125521 -4.653734 -9.638761 3.062384 0.113544 -20.658445 -0.349666 -0.801365 0.684241 -0.000000 -0.000000 0.000000 -58.371821 2.730194 -12.463190 77.595122 0.319934 -7.758160 -11.705907 -6.290828 11.287963 9.753007 5.809465 5.838082 0.000002 0.000000 0.000000 
-108.758018 84.427895 -6.430666 1.288894 -58.949505 -0.234362 15.746545 0.809147 -4.629044 15.077533 1.383969 -6.329462 0.000000 0.000000 0.000000 15.230642 1.483828 -6.284085 -17.484613 25.776260 4.725523 -13.493820 23.182097 1.276605 0.000001 0.000000 -0.000001 -2.761762 -14.973153 -2.599934 0.000000 0.000000 0.000000 -36.570650 20.101428 -24.497419 0.136250 -75.533559 0.102117 22.628506 -12.613198 26.528088 -0.175609 -1.983300 10.662193 -0.950364 11.151378 -5.698968 -1.794639 -7.840076 -1.978406 -0.000000 0.000001 -0.000000 13.243764 -0.980694 21.119408 -0.180065 0.297945 -20.665907 0.000000 -0.000001 0.000001 8.602298 -0.415812 9.524143 0.199712 0.617419 -19.462040 -0.000001 -0.000001 0.000001 6.163240 3.070134 -5.773603 0.026166 0.263573 -19.685922 -0.000001 0.000002 -0.000001 -5.603437 7.655372 -3.442082 0.187319 0.238809 -36.148742 -0.000001 -0.000001 -0.000003 -2.248350 12.848356 12.353131 0.000000 0.000000 0.000000 -38.156271 -4.801560 41.733221 148.594440 105.662637 -149.509658 -15.782207 4.369576 3.355053 1.092525 1.427165 -13.981080 4.180289 -25.639292 -0.137692 4.324363 -21.870163 -12.064785 0.000001 0.000002 0.000001 19.497139 11.206781 -3.763928 -0.109356 -0.329815 27.621550 -0.000004 -0.000001 0.000001 4.225245 2.321635 4.775581 0.381436 -0.492056 36.476140 -0.000000 -0.000002 0.000001 -7.049311 -10.793704 15.300479 0.116330 -0.156716 35.741547 -0.000001 -0.000003 -0.000001 -19.484416 -20.310005 15.564198 0.272097 -0.118416 46.430284 0.000004 0.000000 -0.000001 -45.170377 -23.552403 21.113578 43.710219 -5.617989 -9.874442 1.848085 0.354325 -20.581132 -0.346971 -0.770045 0.696758 -0.000000 0.000001 -0.000000 -55.682281 2.657269 -13.521943 71.875870 -0.255916 -8.059017 -10.800936 -5.793694 13.348608 9.940552 4.199867 5.272435 0.000001 0.000001 0.000000 
-109.931610 84.235245 -6.285545 0.030293 -59.020525 -1.165357 15.659214 0.667371 -4.552624 14.866518 1.154941 -6.453883 0.000000 0.000000 0.000000 14.999275 1.239166 -6.407291 -18.318070 26.279416 4.124364 -12.457449 23.628613 0.923196 0.000001 -0.000000 0.000001 -3.369803 -14.971788 -4.713515 0.000000 0.000000 0.000000 -34.656520 18.672689 -25.510695 0.075756 -74.779138 0.043112 23.560710 -12.862629 24.796961 -0.186356 -2.074057 10.630864 -0.821886 11.469858 -5.559774 -1.686513 -7.513023 -1.802998 -0.000000 0.000000 0.000000 13.242568 -0.981882 20.739690 -0.179670 0.298328 -21.045879 -0.000001 -0.000002 -0.000000 8.597224 -0.413224 9.144236 0.200840 0.618840 -19.841973 -0.000000 0.000001 -0.000001 6.163655 3.070998 -6.153373 0.026298 0.266221 -20.065839 -0.000001 0.000003 0.000000 -5.590147 7.651180 -3.822585 0.188557 0.240335 -36.528712 -0.000003 -0.000001 -0.000000 -2.345959 12.708594 11.887826 0.000000 0.000000 0.000000 -38.023185 -6.050287 41.672955 146.574726 103.838990 -147.305597 -14.418642 6.388288 5.139721 1.079771 1.593661 -13.922124 4.170494 -25.607752 -0.126333 4.321857 -21.837170 -12.050729 0.000001 0.000001 -0.000000 19.499382 11.211518 -3.800236 -0.109402 -0.329803 27.585227 -0.000003 -0.000000 -0.000001 4.224075 2.322030 4.739253 0.381346 -0.491978 36.439906 0.000001 -0.000002 -0.000001 -7.054209 -10.798433 15.264030 0.116313 -0.156647 35.705248 -0.000001 0.000000 0.000000 -19.492802 -20.318677 15.526972 0.271949 -0.118291 46.394026 -0.000001 0.000002 -0.000001 -44.503218 -22.945315 21.842311 44.634074 -7.011041 -10.210691 0.762396 0.600233 -20.307392 -0.194617 -0.734137 0.154958 -0.000000 0.000000 -0.000000 -52.584602 2.296261 -14.785657 65.172606 0.201979 -8.287660 -8.606166 -4.371480 16.763613 6.267314 1.003785 3.275211 0.000001 0.000001 -0.000000 
